:SAMPLES-PER-SECOND 30
:FULLY-SPECIFIED
:DEGREES
1
root  9.66868 40.7962 -2.59902 -167.833 -84.2553 164.886
RightUpLeg  -0.778406 -9.56855 -9.00375
RightLeg  6.68543 1.35523 2.49558
RightFoot  -2.1953 -0.232248 2.67612
RightToes  0.00048216 0.542163 -0.142577
Spine  5.25493 0.637177 -2.28973
Spine1  1.87072 0.65235 -0.219237
HEad  -4.53667 0.278282 1.73294
LeftShoulder1  0.674315 -1.34163 -6.12118
LeftArm  -18.2693 13.5903 -8.69075
LeftForeArm  8.47035 -1.50356 -1.07428
LeftHand  -0.25398 0.0180481 5.50724
RightShoulder  0.814006 1.39506 9.24513
RightArm  -22.6866 -6.51512 2.32135
RightForeArm  -6.09555 1.71098 2.08985
RightHand  -3.36197 9.81784 -25.6904
LeftUpLeg  2.91196 5.47944 2.21041
LeftLeg  3.56174 16.4183 -3.65651
LeftFoot  -3.62812 -0.0300152 0.848864
LeftToes  1.06244e-005 4.65856e-005 -8.18505e-006
2
root  9.66594 40.7962 -2.59902 -167.742 -84.263 164.797
RightUpLeg  -0.76919 -9.56913 -9.00422
RightLeg  6.67532 1.33855 2.49193
RightFoot  -2.20703 -0.232601 2.6816
RightToes  0.00048216 0.542163 -0.142577
Spine  5.22728 0.657975 -2.35767
Spine1  1.98467 0.680311 -0.252307
HEad  -4.54675 0.13517 1.83185
LeftShoulder1  0.662396 -1.31161 -5.94074
LeftArm  -18.245 13.5464 -8.82959
LeftForeArm  8.46648 -1.52472 -1.1032
LeftHand  -0.25398 0.0180481 5.50724
RightShoulder  0.81331 1.3792 9.31298
RightArm  -22.743 -6.48551 2.32246
RightForeArm  -5.5152 1.61795 2.0319
RightHand  -3.29057 9.78042 -25.2299
LeftUpLeg  2.92749 5.47886 2.20224
LeftLeg  3.52812 16.4152 -3.66386
LeftFoot  -3.60998 -0.0294945 0.840772
LeftToes  1.06244e-005 4.65856e-005 -8.18505e-006
3
root  9.66125 40.7962 -2.59859 -167.725 -84.2767 164.817
RightUpLeg  -0.793198 -9.56444 -8.99477
RightLeg  6.66665 1.30619 2.48705
RightFoot  -2.21513 -0.233451 2.69479
RightToes  0.00048216 0.542163 -0.142577
Spine  5.11064 0.711087 -2.5499
Spine1  2.26294 0.723351 -0.197157
HEad  -4.61647 -0.171849 1.94893
LeftShoulder1  0.650015 -1.26414 -5.80277
LeftArm  -18.247 13.421 -8.95075
LeftForeArm  8.43649 -1.58653 -1.13887
LeftHand  -0.25398 0.0180481 5.50724
RightShoulder  0.807349 1.32452 9.37731
RightArm  -22.8834 -6.3812 2.36231
RightForeArm  -4.86102 1.47513 1.94049
RightHand  -3.20968 9.72531 -24.7261
LeftUpLeg  2.91445 5.47821 2.20751
LeftLeg  3.48271 16.3943 -3.6799
LeftFoot  -3.58812 -0.0258727 0.78448
LeftToes  1.06244e-005 4.65856e-005 -8.18505e-006
4
root  9.65605 40.7965 -2.59613 -167.989 -84.2888 165.156
RightUpLeg  -0.85155 -9.53001 -8.94372
RightLeg  6.63771 1.25111 2.47902
RightFoot  -2.18986 -0.23413 2.70533
RightToes  0.00048216 0.542163 -0.142577
Spine  4.98287 0.778403 -2.74388
Spine1  2.49859 0.771221 -0.0981217
HEad  -4.67165 -0.413056 1.99399
LeftShoulder1  0.65498 -1.27619 -5.8802
LeftArm  -18.3021 13.2679 -8.88245
LeftForeArm  8.46127 -1.64522 -1.14101
LeftHand  -0.25398 0.0180481 5.50724
RightShoulder  0.791831 1.23313 9.37098
RightArm  -23.0073 -6.2883 2.46332
RightForeArm  -4.80529 1.43798 1.8995
RightHand  -3.22123 9.76021 -24.7557
LeftUpLeg  2.84594 5.49313 2.24195
LeftLeg  3.47323 16.3708 -3.68936
LeftFoot  -3.57981 -0.0231552 0.742243
LeftToes  1.06244e-005 4.65856e-005 -8.18505e-006
5
root  9.64973 40.7979 -2.59101 -168.43 -84.2922 165.679
RightUpLeg  -0.901289 -9.47037 -8.87579
RightLeg  6.56508 1.18162 2.46993
RightFoot  -2.13488 -0.234502 2.7111
RightToes  0.00048216 0.542163 -0.142577
Spine  4.95631 0.840326 -2.85862
Spine1  2.49268 0.816077 -0.0213214
HEad  -4.61596 -0.40236 1.97528
LeftShoulder1  0.677591 -1.3728 -6.09748
LeftArm  -18.3873 13.1543 -8.66727
LeftForeArm  8.59875 -1.61519 -1.09577
LeftHand  -0.25398 0.0180481 5.50724
RightShoulder  0.779201 1.18125 9.2768
RightArm  -22.9553 -6.29242 2.57327
RightForeArm  -5.14779 1.4852 1.94562
RightHand  -3.29185 9.88924 -25.0702
LeftUpLeg  2.76368 5.52484 2.29138
LeftLeg  3.48294 16.3604 -3.70102
LeftFoot  -3.57499 -0.025726 0.782199
LeftToes  1.06244e-005 4.65856e-005 -8.18505e-006
6
root  9.6432 40.7998 -2.58474 -168.72 -84.282 166.039
RightUpLeg  -0.930776 -9.42252 -8.83629
RightLeg  6.47829 1.13731 2.46684
RightFoot  -2.0882 -0.235349 2.72424
RightToes  0.00048216 0.542163 -0.142577
Spine  5.03831 0.893043 -2.97862
Spine1  2.28277 0.840254 0.0978338
HEad  -4.43237 -0.211775 1.90958
LeftShoulder1  0.699484 -1.46337 -6.30985
LeftArm  -18.4641 13.0794 -8.4604
LeftForeArm  8.76616 -1.49575 -1.03222
LeftHand  -0.25398 0.0180481 5.50724
RightShoulder  0.783666 1.24294 9.14115
RightArm  -22.7024 -6.35241 2.58279
RightForeArm  -5.47657 1.49888 2.05108
RightHand  -3.34182 10.0099 -25.2436
LeftUpLeg  2.70944 5.55635 2.3242
LeftLeg  3.46866 16.362 -3.72999
LeftFoot  -3.56046 -0.0301049 0.850259
LeftToes  1.06244e-005 4.65856e-005 -8.18505e-006
7
root  9.63902 40.8011 -2.57903 -168.764 -84.2646 166.135
RightUpLeg  -0.958404 -9.40625 -8.83237
RightLeg  6.42105 1.1386 2.47132
RightFoot  -2.06833 -0.236827 2.74528
RightToes  0.00048216 0.542163 -0.142577
Spine  5.15434 0.934987 -3.16193
Spine1  2.06701 0.841788 0.26905
HEad  -4.17742 -0.0717384 1.79498
LeftShoulder1  0.701566 -1.44927 -6.40072
LeftArm  -18.5119 13.0112 -8.39033
LeftForeArm  8.80681 -1.38915 -0.996034
LeftHand  -0.25398 0.0180481 5.50724
RightShoulder  0.805509 1.3947 9.06829
RightArm  -22.461 -6.39664 2.45383
RightForeArm  -5.80222 1.50975 2.14813
RightHand  -3.37826 10.0729 -25.4064
LeftUpLeg  2.67534 5.56936 2.32872
LeftLeg  3.43953 16.3682 -3.76018
LeftFoot  -3.54598 -0.030472 0.855965
LeftToes  1.06244e-005 4.65856e-005 -8.18505e-006
8
root  9.63668 40.8019 -2.57289 -168.829 -84.2578 166.231
RightUpLeg  -0.971455 -9.40217 -8.83161
RightLeg  6.38327 1.15088 2.47964
RightFoot  -2.04981 -0.237939 2.75452
RightToes  0.00048216 0.542163 -0.142577
Spine  5.26178 0.953173 -3.27858
Spine1  1.95341 0.846716 0.312731
HEad  -3.94298 -0.103853 1.66649
LeftShoulder1  0.687347 -1.37694 -6.30771
LeftArm  -18.5162 12.981 -8.47652
LeftForeArm  8.6753 -1.36723 -1.00529
LeftHand  -0.25398 0.0180481 5.50724
RightShoulder  0.832874 1.54871 9.11425
RightArm  -22.4665 -6.44345 2.29418
RightForeArm  -6.14061 1.6258 2.17034
RightHand  -3.44151 10.1229 -25.7793
LeftUpLeg  2.64804 5.57354 2.3303
LeftLeg  3.43548 16.3669 -3.76967
LeftFoot  -3.54938 -0.0284016 0.823785
LeftToes  1.06244e-005 4.65856e-005 -8.18505e-006
9
root  9.63259 40.8026 -2.56394 -169.098 -84.2711 166.507
RightUpLeg  -0.943101 -9.39545 -8.81952
RightLeg  6.32973 1.138 2.49117
RightFoot  -2.01312 -0.238058 2.74739
RightToes  0.00048216 0.542163 -0.142577
Spine  5.37423 0.942847 -3.21217
Spine1  1.88946 0.875698 0.108719
HEad  -3.82126 -0.201704 1.58003
LeftShoulder1  0.678926 -1.38462 -6.0917
LeftArm  -18.4556 13.0532 -8.61205
LeftForeArm  8.50238 -1.4043 -1.0438
LeftHand  -0.25398 0.0180481 5.50724
RightShoulder  0.853975 1.64884 9.21456
RightArm  -22.664 -6.5013 2.22994
RightForeArm  -6.15391 1.76275 2.1131
RightHand  -3.48009 10.1468 -26.0161
LeftUpLeg  2.64212 5.59686 2.35575
LeftLeg  3.45124 16.3392 -3.77782
LeftFoot  -3.56765 -0.0294786 0.840524
LeftToes  1.06244e-005 4.65856e-005 -8.18505e-006
10
root  9.62677 40.8033 -2.5526 -169.385 -84.2894 166.792
RightUpLeg  -0.9012 -9.39672 -8.81484
RightLeg  6.27375 1.11895 2.50417
RightFoot  -1.98042 -0.23881 2.74961
RightToes  0.00048216 0.542163 -0.142577
Spine  5.50496 0.925895 -3.07815
Spine1  1.80089 0.915947 -0.180589
HEad  -3.82622 -0.167829 1.5246
LeftShoulder1  0.686886 -1.49439 -5.93116
LeftArm  -18.3556 13.1895 -8.65542
LeftForeArm  8.42121 -1.44165 -1.08149
LeftHand  -0.25398 0.0180481 5.50724
RightShoulder  0.864419 1.69347 9.27845
RightArm  -22.7717 -6.46933 2.23961
RightForeArm  -5.75568 1.72344 2.05229
RightHand  -3.41994 10.0517 -25.7366
LeftUpLeg  2.65538 5.64601 2.39591
LeftLeg  3.45556 16.2843 -3.8178
LeftFoot  -3.58465 -0.0334022 0.901508
LeftToes  1.06244e-005 4.65856e-005 -8.18505e-006
11
root  9.62304 40.8039 -2.54164 -169.478 -84.2939 166.895
RightUpLeg  -0.898985 -9.39932 -8.82415
RightLeg  6.25603 1.12308 2.50799
RightFoot  -1.97347 -0.241014 2.77402
RightToes  0.00048216 0.542163 -0.142577
Spine  5.64242 0.928106 -3.04818
Spine1  1.69459 0.947003 -0.338495
HEad  -3.84783 0.0326304 1.44332
LeftShoulder1  0.699595 -1.58655 -5.93465
LeftArm  -18.3062 13.2402 -8.58252
LeftForeArm  8.39924 -1.42285 -1.08985
LeftHand  -0.25398 0.0180481 5.50724
RightShoulder  0.866721 1.70341 9.30173
RightArm  -22.6708 -6.30066 2.20862
RightForeArm  -5.43084 1.53533 2.0572
RightHand  -3.30875 9.85006 -25.254
LeftUpLeg  2.65143 5.69701 2.42347
LeftLeg  3.45937 16.2308 -3.87576
LeftFoot  -3.59589 -0.0350551 0.9272
LeftToes  1.06244e-005 4.65856e-005 -8.18505e-006
